<?xml version="1.0" encoding="UTF-8"?>
<svg id="Layer_1" xmlns="http://www.w3.org/2000/svg" width="250" height="250" version="1.1" viewBox="0 0 250 250">
  <!-- Generator: Adobe Illustrator 29.1.0, SVG Export Plug-In . SVG Version: 2.1.0 Build 142)  -->
  <defs>
    <style>
      .st0 {
        fill: #0084d5;
      }
    </style>
  </defs>
  <path class="st0" d="M86.8,86.8c0-1.7,1.3-3,3-3h9.1c1.7,0,3,1.3,3,3s-1.3,3-3,3h-9.1c-1.7,0-3-1.3-3-3ZM98.9,102.3h-9.1c-1.7,0-3,1.3-3,3s1.3,3,3,3h9.1c1.7,0,3-1.3,3-3s-1.3-3-3-3ZM98.9,120.8h-9.1c-1.7,0-3,1.3-3,3s1.3,3,3,3h9.1c1.7,0,3-1.3,3-3s-1.3-3-3-3ZM158.6,91.7h9.1c1.7,0,3-1.3,3-3s-1.3-3-3-3h-9.1c-1.7,0-3,1.3-3,3s1.3,3,3,3ZM158.6,110.2h9.1c1.7,0,3-1.3,3-3s-1.3-3-3-3h-9.1c-1.7,0-3,1.3-3,3s1.3,3,3,3ZM158.6,128.7h9.1c1.7,0,3-1.3,3-3s-1.3-3-3-3h-9.1c-1.7,0-3,1.3-3,3s1.3,3,3,3ZM126.3,65.1c1.7,0,3-1.3,3-3v-11.3c0-1.7-1.3-3-3-3s-3,1.3-3,3v11.3c0,1.7,1.3,3,3,3ZM126.3,95.5c1.7,0,3-1.3,3-3v-11.3c0-1.7-1.3-3-3-3s-3,1.3-3,3v11.3c0,1.7,1.3,3,3,3ZM126.3,125.9c1.7,0,3-1.3,3-3v-11.3c0-1.7-1.3-3-3-3s-3,1.3-3,3v11.3c0,1.7,1.3,3,3,3ZM69.1,135.7c0-1.7,1.3-3,3-3h4.7v-59.7c0-1,.5-1.8,1.2-2.4l27.9-20.6v-12.1c0-1.7,1.3-3,3-3h50.2c1.7,0,3,1.3,3,3v26.6l21.1,11.6c1,.5,1.6,1.5,1.6,2.6v54h4.7c1.7,0,3,1.3,3,3s-1.3,3-3,3h-117.5c-1.7,0-3-1.3-3-3h0ZM178.8,80.5l-31.4-17.2v69.5h31.4v-52.3ZM111.9,40.9v91.8h29.5V58.2c0-1.1.6-2,1.5-2.6.9-.5,2-.6,3,0l10.3,5.6v-20.3h-44.2ZM82.8,132.7h23.1V57.4l-23.1,17.1v58.2ZM201.7,154.2c-6.3-1.1-11.9,1.2-19.9,5.9,0,0-.1,0-.2.1l-22.1,14.9c-2.2-4.6-6.9-9.4-17-9.8l-26.7-1.2c-6.9-7.2-15.2-10.8-27.4-11.9-9.9-.9-21,2.4-30.4,9.1-.8.5-1.4,1.1-2.1,1.7-.9.8-1.8,1.5-2.6,1.9l-12.5,6.6c-1.5.8-2,2.6-1.3,4.1.8,1.5,2.6,2,4.1,1.3l12.5-6.6c1.4-.8,2.6-1.8,3.7-2.6.6-.5,1.2-1,1.7-1.4,8.3-5.9,17.9-8.8,26.4-8,11.2,1.1,18.3,4.2,24.4,10.9.5.6,1.3.9,2.1,1l28,1.3c6.6.3,10.7,2.8,12.4,7.7.2.6.3,1.2.2,1.7-.3,2.3-3.2,4.7-7.4,4.5l-37.3-1.7c-1.6,0-3.1,1.2-3.1,2.9,0,1.7,1.2,3.1,2.9,3.1l37.3,1.7c.3,0,.5,0,.7,0,6.6,0,12.1-4.1,12.9-9.7,0,0,0,0,0,0l24.1-16.3c6.9-4,11.2-5.9,15.7-5.1,1.7.3,2.4,2.4,2.3,3.8,0,.7-.3,1.8-1.3,2.7l-38,34.7c-1.6,1.5-3.8,2.7-13.5,2.3,0,0,0,0-.1,0h-65.8c-4.3,0-8.5,1.1-12.3,3.1l-10.4,5.5c-1.5.8-2,2.6-1.3,4.1.5,1,1.6,1.6,2.7,1.6s.9-.1,1.4-.3l10.4-5.5c2.9-1.5,6.2-2.4,9.5-2.4h65.8c9.5.4,14.2-.6,17.8-3.9l38-34.7c2-1.8,3.1-4.2,3.2-6.8.2-4.2-2.3-9.1-7.3-10h0Z"/>
</svg>