<?xml version="1.0" encoding="UTF-8"?>
<svg id="Layer_1" xmlns="http://www.w3.org/2000/svg" width="250" height="250" version="1.1" viewBox="0 0 250 250">
  <!-- Generator: Adobe Illustrator 29.1.0, SVG Export Plug-In . SVG Version: 2.1.0 Build 142)  -->
  <defs>
    <style>
      .st0 {
        fill: #0084d5;
      }
    </style>
  </defs>
  <path class="st0" d="M158,114.4c-5.1-12.9-17.7-22-32.4-22s-27.3,9.1-32.4,22c0,.1,0,.2-.1.3-1.5,3.9-2.3,8.1-2.3,12.5s.8,8.6,2.3,12.5c0,.1,0,.2.1.3,5.1,12.9,17.7,22,32.4,22s27.3-9.1,32.4-22c0-.1,0-.2.1-.3,1.5-3.9,2.3-8.1,2.3-12.5s-.8-8.6-2.3-12.5c0-.1,0-.2-.1-.3h0ZM125.6,156c-2.7,0-6.2-5.3-8.1-14.3h16.2c-1.9,9-5.4,14.3-8.1,14.3ZM116.6,135.8c-.3-2.6-.5-5.5-.5-8.6s.2-5.9.5-8.5h18.1c.3,2.6.5,5.5.5,8.5s-.2,5.9-.5,8.6h-18.1ZM96.8,127.2c0-3,.5-5.8,1.3-8.5h12.5c-.3,2.8-.5,5.7-.5,8.5s.2,5.7.5,8.6h-12.5c-.8-2.7-1.3-5.6-1.3-8.5ZM125.6,98.4c2.7,0,6.2,5.3,8.1,14.3h-16.2c1.9-9,5.4-14.3,8.1-14.3ZM140.7,118.7h12.5c.8,2.7,1.3,5.6,1.3,8.5s-.5,5.8-1.3,8.6h-12.5c.3-2.8.5-5.7.5-8.6s-.2-5.7-.5-8.5ZM150.5,112.7h-10.7c-.9-4.7-2.3-9-4.1-12.5,6.3,2.3,11.5,6.8,14.8,12.5ZM115.6,100.2c-1.8,3.4-3.2,7.8-4.1,12.5h-10.7c3.3-5.7,8.6-10.1,14.8-12.5ZM100.7,141.8h10.7c.9,4.7,2.3,9,4.1,12.5-6.3-2.3-11.5-6.8-14.8-12.5ZM135.7,154.2c1.8-3.4,3.2-7.8,4.1-12.5h10.7c-3.3,5.7-8.6,10.1-14.8,12.5ZM188.4,77.2c-.6,1-1.6,1.5-2.6,1.5s-1-.1-1.5-.4l-44.9-26c-1.4-.8-1.9-2.7-1.1-4.1.8-1.4,2.7-1.9,4.1-1.1l44.9,26c1.4.8,1.9,2.7,1.1,4.1h0ZM200.7,98.6c1.7,0,3,1.3,3,3v51.9c0,1.7-1.3,3-3,3s-3-1.3-3-3v-51.9c0-1.7,1.3-3,3-3ZM188.4,178c.8,1.4.3,3.3-1.1,4.1l-44.9,26c-.5.3-1,.4-1.5.4-1,0-2-.5-2.6-1.5-.8-1.4-.3-3.3,1.1-4.1l44.9-26c1.4-.8,3.3-.3,4.1,1.1h0ZM113.4,206.9c-.6,1-1.6,1.5-2.6,1.5s-1-.1-1.5-.4l-44.9-26c-1.4-.8-1.9-2.7-1.1-4.1.8-1.4,2.7-1.9,4.1-1.1l44.9,26c1.4.8,1.9,2.7,1.1,4.1ZM50.9,156.5c-1.7,0-3-1.3-3-3v-51.9c0-1.7,1.3-3,3-3s3,1.3,3,3v51.9c0,1.7-1.3,3-3,3ZM63.3,77.2c-.8-1.4-.3-3.3,1.1-4.1l44.9-26c1.4-.8,3.3-.3,4.1,1.1.8,1.4.3,3.3-1.1,4.1l-44.9,26c-.5.3-1,.4-1.5.4-1,0-2-.5-2.6-1.5h0ZM125.2,53.9c5.1,0,9.3-4.2,9.3-9.3s-4.2-9.3-9.3-9.3-9.3,4.2-9.3,9.3,4.2,9.3,9.3,9.3ZM125.2,41.3c1.8,0,3.3,1.5,3.3,3.3s-1.5,3.3-3.3,3.3-3.3-1.5-3.3-3.3,1.5-3.3,3.3-3.3ZM125.2,200.5c-5.1,0-9.3,4.2-9.3,9.3s4.2,9.3,9.3,9.3,9.3-4.2,9.3-9.3-4.2-9.3-9.3-9.3h0ZM125.2,213.1c-1.8,0-3.3-1.5-3.3-3.3s1.5-3.3,3.3-3.3,3.3,1.5,3.3,3.3-1.5,3.3-3.3,3.3ZM51.5,161.4c-5.1,0-9.3,4.2-9.3,9.3s4.2,9.3,9.3,9.3,9.3-4.2,9.3-9.3-4.2-9.3-9.3-9.3ZM51.5,174.1c-1.8,0-3.3-1.5-3.3-3.3s1.5-3.3,3.3-3.3,3.3,1.5,3.3,3.3-1.5,3.3-3.3,3.3ZM199.7,161.4c-5.1,0-9.3,4.2-9.3,9.3s4.2,9.3,9.3,9.3,9.3-4.2,9.3-9.3-4.2-9.3-9.3-9.3ZM199.7,174.1c-1.8,0-3.3-1.5-3.3-3.3s1.5-3.3,3.3-3.3,3.3,1.5,3.3,3.3-1.5,3.3-3.3,3.3ZM51.5,75.1c-5.1,0-9.3,4.2-9.3,9.3s4.2,9.3,9.3,9.3,9.3-4.2,9.3-9.3-4.2-9.3-9.3-9.3ZM51.5,87.7c-1.8,0-3.3-1.5-3.3-3.3s1.5-3.3,3.3-3.3,3.3,1.5,3.3,3.3-1.5,3.3-3.3,3.3ZM199.7,93.7c5.1,0,9.3-4.2,9.3-9.3s-4.2-9.3-9.3-9.3-9.3,4.2-9.3,9.3,4.2,9.3,9.3,9.3ZM199.7,81.1c1.8,0,3.3,1.5,3.3,3.3s-1.5,3.3-3.3,3.3-3.3-1.5-3.3-3.3,1.5-3.3,3.3-3.3ZM125.6,90.2c-1.7,0-3-1.3-3-3v-25.2c0-1.7,1.3-3,3-3s3,1.3,3,3v25.2c0,1.7-1.3,3-3,3ZM125.6,166.2c1.7,0,3,1.3,3,3v25.2c0,1.7-1.3,3-3,3s-3-1.3-3-3v-25.2c0-1.7,1.3-3,3-3ZM67.3,97.8c-1.4-.8-1.9-2.7-1.1-4.1.8-1.4,2.7-1.9,4.1-1.1l21.8,12.6c1.4.8,1.9,2.7,1.1,4.1-.6,1-1.6,1.5-2.6,1.5s-1-.1-1.5-.4l-21.8-12.6ZM186.1,162.9c-.6,1-1.6,1.5-2.6,1.5s-1-.1-1.5-.4l-21.8-12.6c-1.4-.8-1.9-2.7-1.1-4.1s2.7-1.9,4.1-1.1l21.8,12.6c1.4.8,1.9,2.7,1.1,4.1h0ZM66.6,162.5c-.8-1.4-.3-3.3,1.1-4.1l21.8-12.6c1.4-.8,3.3-.3,4.1,1.1.8,1.4.3,3.3-1.1,4.1l-21.8,12.6c-.5.3-1,.4-1.5.4-1,0-2-.5-2.6-1.5ZM185.4,97.4l-21.8,12.6c-.5.3-1,.4-1.5.4-1,0-2-.5-2.6-1.5-.8-1.4-.3-3.3,1.1-4.1l21.8-12.6c1.4-.8,3.3-.3,4.1,1.1.8,1.4.3,3.3-1.1,4.1h0Z"/>
</svg>