<?xml version="1.0" encoding="UTF-8"?>
<svg id="Layer_1" xmlns="http://www.w3.org/2000/svg" width="250" height="250" version="1.1" viewBox="0 0 250 250">
  <!-- Generator: Adobe Illustrator 29.0.1, SVG Export Plug-In . SVG Version: 2.1.0 Build 192)  -->
  <path d="M145.696,120.08c-1.363,0-2.734-.333-3.999-1.007l-16.37-8.723c-.178-.094-.393-.095-.573,0l-16.369,8.722c-2.89,1.539-6.331,1.301-8.98-.624-2.648-1.925-3.938-5.123-3.367-8.347l3.237-18.264c.036-.2-.03-.403-.176-.544l-13.354-12.873c-2.357-2.272-3.193-5.619-2.182-8.733,1.012-3.114,3.655-5.33,6.898-5.782l18.37-2.565c.201-.028.374-.154.462-.336l8.116-16.679c1.433-2.944,4.357-4.773,7.632-4.773s6.198,1.829,7.631,4.773h0l8.116,16.679c.089.182.262.308.462.335l18.371,2.566c3.242.452,5.886,2.668,6.897,5.782,1.013,3.114.177,6.46-2.181,8.733l-13.354,12.873c-.146.141-.212.345-.177.546l3.237,18.262c.571,3.224-.719,6.422-3.367,8.346-1.489,1.083-3.229,1.632-4.981,1.632ZM125.042,104.278c1.067,0,2.133.259,3.106.776l16.371,8.724c1.239.66,2.252.092,2.632-.184.378-.274,1.231-1.063.986-2.445l-3.237-18.264c-.384-2.173.335-4.382,1.921-5.911l13.354-12.873c1.011-.974.783-2.114.639-2.559-.145-.445-.631-1.501-2.021-1.695l-18.37-2.565c-2.183-.304-4.062-1.669-5.027-3.651l-8.117-16.68c-.614-1.262-1.769-1.398-2.236-1.398s-1.622.137-2.237,1.398l-8.116,16.679c-.964,1.982-2.844,3.349-5.028,3.653l-18.37,2.564c-1.391.194-1.877,1.25-2.021,1.695-.145.444-.372,1.584.639,2.559l13.354,12.873c1.587,1.53,2.305,3.74,1.92,5.912l-3.237,18.263c-.245,1.382.608,2.171.986,2.445s1.392.843,2.632.184l16.37-8.723c.973-.519,2.041-.777,3.107-.777ZM160.216,217.841c1.559-2.892,2.18-6.561,1.899-11.211-.271-4.631-1.284-8.573-3.096-12.049-3.238-6.24-11.959-16.71-33.979-16.71s-30.74,10.47-33.976,16.705c-1.801,3.455-2.814,7.396-3.098,12.048-.28,4.657.341,8.326,1.898,11.217.785,1.458,2.605,2.005,4.064,1.218,1.458-.785,2.003-2.605,1.218-4.063-1.013-1.88-1.403-4.5-1.191-8.008.23-3.793,1.025-6.945,2.431-9.643,6.084-11.724,20.564-13.474,28.653-13.474s22.57,1.75,28.656,13.479c1.414,2.714,2.209,5.863,2.43,9.636.211,3.509-.179,6.129-1.191,8.01-.786,1.458-.241,3.278,1.218,4.063.452.244.939.36,1.42.36,1.068,0,2.102-.572,2.644-1.578ZM125.042,171.074c-5.338,0-10.368-2.35-13.8-6.445-2.707-3.229-4.198-7.332-4.198-11.554,0-9.924,8.074-17.998,17.999-17.998s18,8.074,18,17.998c0,4.221-1.491,8.324-4.199,11.555-3.431,4.095-8.461,6.444-13.801,6.444ZM125.042,141.077c-6.616,0-11.999,5.382-11.999,11.998,0,2.814.993,5.549,2.797,7.699,2.29,2.733,5.643,4.3,9.202,4.3s6.914-1.566,9.202-4.299c1.805-2.152,2.798-4.887,2.798-7.7,0-6.616-5.383-11.998-12-11.998ZM208.156,181.218c1.257-1.08,1.4-2.975.32-4.23-8.638-10.05-22.812-11.551-30.493-11.551-6.363,0-15.587.978-23.393,5.634-1.423.849-1.888,2.69-1.039,4.113.849,1.424,2.691,1.889,4.113,1.039,6.632-3.956,14.71-4.786,20.318-4.786,6.652,0,18.867,1.229,25.942,9.461.594.69,1.433,1.045,2.276,1.045.692,0,1.389-.238,1.954-.725ZM177.98,158.646c-5.338,0-10.368-2.35-13.801-6.445-2.707-3.229-4.198-7.332-4.198-11.554,0-9.924,8.074-17.998,17.999-17.998s18,8.074,18,17.998c0,4.222-1.491,8.325-4.199,11.555-3.432,4.095-8.462,6.444-13.801,6.444ZM177.98,128.649c-6.616,0-11.999,5.382-11.999,11.998,0,2.814.993,5.549,2.797,7.699,2.29,2.733,5.644,4.3,9.202,4.3s6.913-1.566,9.202-4.299c1.805-2.151,2.798-4.886,2.798-7.7,0-6.616-5.383-11.998-12-11.998ZM46.158,180.898c7.074-8.231,19.296-9.461,25.951-9.461,5.604,0,13.678.83,20.309,4.786,1.424.848,3.265.384,4.113-1.039.849-1.423.384-3.265-1.039-4.113-7.806-4.656-17.024-5.634-23.383-5.634-7.685,0-21.865,1.501-30.502,11.551-1.08,1.257-.937,3.15.32,4.23.566.486,1.262.725,1.954.725.844,0,1.684-.354,2.277-1.045ZM72.105,158.646c-5.34,0-10.371-2.35-13.802-6.445-2.707-3.228-4.199-7.331-4.199-11.554,0-9.924,8.075-17.998,18-17.998s17.999,8.074,17.999,17.998c0,4.223-1.492,8.326-4.2,11.555-3.43,4.095-8.459,6.444-13.798,6.444ZM72.105,128.649c-6.617,0-12,5.382-12,11.998,0,2.814.993,5.549,2.797,7.699,2.29,2.733,5.644,4.3,9.204,4.3s6.912-1.566,9.2-4.299c1.805-2.151,2.798-4.886,2.798-7.7,0-6.616-5.382-11.998-11.999-11.998ZM226.084,123.913c0-55.715-45.327-101.043-101.042-101.043-31.18,0-60.136,14.068-79.442,38.598-1.025,1.302-.8,3.188.502,4.213,1.301,1.024,3.188.8,4.213-.502,18.162-23.074,45.399-36.309,74.728-36.309,52.406,0,95.042,42.636,95.042,95.043s-42.636,95.042-95.042,95.042S30,176.319,30,123.913c0-11.8,2.135-23.313,6.346-34.222.597-1.545-.173-3.282-1.718-3.879-1.546-.595-3.283.173-3.879,1.719-4.478,11.6-6.749,23.84-6.749,36.382,0,55.715,45.328,101.042,101.042,101.042s101.042-45.327,101.042-101.042Z" fill="#0084d5"/>
</svg>