<?xml version="1.0" encoding="UTF-8"?>
<svg id="Layer_1" xmlns="http://www.w3.org/2000/svg" width="250" height="250" version="1.1" viewBox="0 0 250 250">
  <!-- Generator: Adobe Illustrator 29.0.1, SVG Export Plug-In . SVG Version: 2.1.0 Build 192)  -->
  <path d="M126.548,40.27c-48.443,0-87.854,39.411-87.854,87.854s39.411,87.854,87.854,87.854,87.854-39.411,87.854-87.854-39.411-87.854-87.854-87.854ZM208.327,125.124h-30.796c-.034-.397-.072-.793-.082-1.188-.045-1.656-1.447-2.968-3.081-2.917-1.656.045-2.962,1.425-2.917,3.081.009.341.029.683.054,1.024h-41.956V46.476c6.633.891,13.304,4.707,19.461,11.179,1.144,1.2,3.042,1.245,4.242.105,1.2-1.143,1.247-3.042.105-4.242-1.414-1.486-2.859-2.842-4.328-4.085,33.312,9.532,57.991,39.671,59.298,75.69ZM44.77,131.124h9.241c1.657,0,3-1.343,3-3s-1.343-3-3-3h-9.241c1.291-35.607,25.42-65.478,58.155-75.365-8.229,6.982-15.309,17.546-20.245,30.784-.579,1.552.21,3.28,1.763,3.858.345.129.699.19,1.048.19,1.216,0,2.36-.746,2.811-1.953,7.815-20.956,21.118-34.492,35.248-36.185v78.671h-12.055c-1.657,0-3,1.343-3,3s1.343,3,3,3h12.055v2.475c0,1.657,1.343,3,3,3s3-1.343,3-3v-2.475h42.116c-.099,4.87-.422,9.712-.995,14.432-4.304,35.543-21.335,61.788-41.121,64.219v-7.746c0-1.657-1.343-3-3-3s-3,1.343-3,3v7.75c-19.014-2.31-35.45-26.385-40.568-60.155-.248-1.639-1.774-2.771-3.415-2.517-1.639.248-2.766,1.777-2.517,3.415,3.791,25.014,13.7,45.12,26.557,56.16-33.078-9.677-57.535-39.706-58.836-75.559ZM149.837,206.584c13.474-11.643,23.517-33.291,26.789-60.307.6-4.957.938-10.042,1.037-15.153h30.663c-1.296,35.728-25.586,65.675-58.489,75.46ZM141.34,107.595v5.475c0,1.657,1.343,3,3,3h35.584c1.657,0,3-1.343,3-3v-5.354c0-9.311-11.374-16.808-20.792-16.808s-20.792,7.443-20.792,16.687ZM176.924,107.716v2.354h-29.584v-2.475c0-5.403,8.47-10.687,14.792-10.687s14.792,5.344,14.792,10.808ZM149.552,76.116c0,6.937,5.644,12.58,12.58,12.58s12.58-5.644,12.58-12.58-5.644-12.58-12.58-12.58-12.58,5.644-12.58,12.58ZM162.132,69.536c3.628,0,6.58,2.952,6.58,6.58s-2.952,6.58-6.58,6.58-6.58-2.952-6.58-6.58,2.952-6.58,6.58-6.58ZM103.544,139.073v-5.354c0-9.311-11.374-16.808-20.792-16.808s-20.792,7.443-20.792,16.687v5.475c0,1.657,1.343,3,3,3h35.584c1.657,0,3-1.343,3-3ZM97.544,136.073h-29.584v-2.475c0-5.403,8.47-10.687,14.792-10.687s14.792,5.344,14.792,10.808v2.354ZM82.752,114.7c6.937,0,12.58-5.644,12.58-12.58s-5.644-12.58-12.58-12.58-12.58,5.644-12.58,12.58,5.644,12.58,12.58,12.58ZM82.752,95.54c3.628,0,6.58,2.952,6.58,6.58s-2.952,6.58-6.58,6.58-6.58-2.952-6.58-6.58,2.952-6.58,6.58-6.58ZM112.862,194.08h35.584c1.657,0,3-1.343,3-3v-5.354c0-9.31-11.374-16.807-20.792-16.807s-20.792,7.442-20.792,16.686v5.475c0,1.657,1.343,3,3,3ZM115.862,185.606c0-5.402,8.47-10.686,14.792-10.686s14.792,5.343,14.792,10.807v2.354h-29.584v-2.475ZM130.654,166.708c6.938,0,12.581-5.644,12.581-12.58s-5.644-12.581-12.581-12.581-12.58,5.644-12.58,12.581,5.644,12.58,12.58,12.58ZM130.654,147.547c3.629,0,6.581,2.952,6.581,6.581s-2.952,6.58-6.581,6.58-6.58-2.952-6.58-6.58,2.952-6.581,6.58-6.581Z" fill="#0084d5"/>
</svg>